
<svg xmlns="http://www.w3.org/2000/svg" version="1.1" width="400px" height="400px" style="shape-rendering:geometricPrecision; text-rendering:geometricPrecision; image-rendering:optimizeQuality; fill-rule:evenodd; clip-rule:evenodd" xmlns:xlink="http://www.w3.org/1999/xlink">
<g><path style="opacity:1" fill="transparent" d="M -0.5,-0.5 C 132.833,-0.5 266.167,-0.5 399.5,-0.5C 399.5,54.1667 399.5,108.833 399.5,163.5C 398.57,160.364 396.903,157.531 394.5,155C 343.837,107.337 293.504,59.3372 243.5,11C 237.993,7.61975 231.993,6.61975 225.5,8C 178.336,23.5846 131.003,38.5846 83.5,53C 74.4737,55.6822 65.8071,59.1822 57.5,63.5C 55.8076,65.3586 54.3076,67.3586 53,69.5C 35.3543,121.076 17.521,172.41 -0.5,223.5C -0.5,148.833 -0.5,74.1667 -0.5,-0.5 Z"/></g>
<g><path style="opacity:1" fill="#e93123" d="M 399.5,163.5 C 399.5,166.833 399.5,170.167 399.5,173.5C 381.243,225.769 363.077,278.102 345,330.5C 343.439,333.783 341.273,336.617 338.5,339C 282.331,357.612 225.998,375.612 169.5,393C 163.486,394.163 158.153,392.83 153.5,389C 108.55,345.205 63.2167,301.872 17.5,259C 10.9544,252.956 4.95442,246.456 -0.5,239.5C -0.5,234.167 -0.5,228.833 -0.5,223.5C 17.521,172.41 35.3543,121.076 53,69.5C 54.3076,67.3586 55.8076,65.3586 57.5,63.5C 65.8071,59.1822 74.4737,55.6822 83.5,53C 131.003,38.5846 178.336,23.5846 225.5,8C 231.993,6.61975 237.993,7.61975 243.5,11C 293.504,59.3372 343.837,107.337 394.5,155C 396.903,157.531 398.57,160.364 399.5,163.5 Z"/></g>
<g><path style="opacity:1" fill="#212121" d="M 225.5,44.5 C 227.76,45.1389 229.76,46.3055 231.5,48C 274.443,89.9469 317.609,131.447 361,172.5C 361.167,173.167 361.333,173.833 361.5,174.5C 346.586,220.305 330.586,265.639 313.5,310.5C 267.415,325.251 221.415,340.084 175.5,355C 173.5,355.667 171.5,355.667 169.5,355C 124.913,312.416 80.246,269.75 35.5,227C 51.7219,181.632 67.7219,136.132 83.5,90.5C 131.095,75.7454 178.429,60.4121 225.5,44.5 Z"/></g>
<g><path style="opacity:1" fill="#fafafa" d="M 196.5,150.5 C 202.192,149.26 206.026,151.26 208,156.5C 208.333,174.167 208.667,191.833 209,209.5C 224.604,193.839 243.104,189.339 264.5,196C 285.96,205.245 296.96,221.578 297.5,245C 295.728,278.605 278.062,296.438 244.5,298.5C 215.454,297.059 198.287,282.059 193,253.5C 192.333,220.833 192.333,188.167 193,155.5C 193.997,153.677 195.164,152.01 196.5,150.5 Z"/></g>
<g><path style="opacity:1" fill="transparent" d="M 399.5,173.5 C 399.5,248.833 399.5,324.167 399.5,399.5C 266.167,399.5 132.833,399.5 -0.5,399.5C -0.5,346.167 -0.5,292.833 -0.5,239.5C 4.95442,246.456 10.9544,252.956 17.5,259C 63.2167,301.872 108.55,345.205 153.5,389C 158.153,392.83 163.486,394.163 169.5,393C 225.998,375.612 282.331,357.612 338.5,339C 341.273,336.617 343.439,333.783 345,330.5C 363.077,278.102 381.243,225.769 399.5,173.5 Z"/></g>
<g><path style="opacity:1" fill="#eb9937" d="M 66.5,197.5 C 80.0534,197.773 83.7201,203.939 77.5,216C 71.8481,219.878 67.0147,219.045 63,213.5C 60.4165,207.33 61.5832,201.997 66.5,197.5 Z"/></g>
<g><path style="opacity:1" fill="#222222" d="M 236.5,207.5 C 267.812,206.312 282.979,221.312 282,252.5C 275.342,276.807 259.509,286.974 234.5,283C 212.083,273.21 203.916,256.377 210,232.5C 214.85,219.813 223.684,211.479 236.5,207.5 Z"/></g>
<g><path style="opacity:1" fill="#ed9a37" d="M 89.5,221.5 C 99.5067,220.384 104.007,224.718 103,234.5C 100.497,240.461 95.9967,242.628 89.5,241C 82.8397,234.336 82.8397,227.836 89.5,221.5 Z"/></g>
<g><path style="opacity:1" fill="#e99837" d="M 116.5,244.5 C 127.728,244.544 131.894,249.877 129,260.5C 122.833,267.412 117.167,267.079 112,259.5C 109.766,253.369 111.266,248.369 116.5,244.5 Z"/></g>
<g><path style="opacity:1" fill="#ee9a37" d="M 138.5,268.5 C 150.362,267.86 154.529,273.193 151,284.5C 144.588,290.154 138.921,289.487 134,282.5C 132.311,276.655 133.811,271.988 138.5,268.5 Z"/></g>
<g><path style="opacity:1" fill="#eb9937" d="M 161.5,291.5 C 172.042,290.539 176.542,295.206 175,305.5C 172.185,311.169 167.685,313.002 161.5,311C 153.562,304.554 153.562,298.054 161.5,291.5 Z"/></g>
<g><path style="opacity:1" fill="#eb9937" d="M 183.5,315.5 C 194.49,313.992 199.324,318.658 198,329.5C 190.624,337.991 184.291,337.324 179,327.5C 178.269,322.709 179.769,318.709 183.5,315.5 Z"/></g>
</svg>
